HIERARCHY
ROOT Hips
{
	OFFSET 0.00000 0.00000 0.00000
	CHANNELS 6 Xposition Yposition Zposition Zrotation Yrotation Xrotation 
	JOINT RightUpLegDummy
	{
		OFFSET 0 0 0
		CHANNELS 3 Zrotation Yrotation Xrotation
		JOINT RightUpLeg
		{
			OFFSET -3.52197 -3.41223 0.04002
			CHANNELS 3 Zrotation Yrotation Xrotation
			JOINT RightLeg
			{
				OFFSET -1.06336 -17.58347 1.60435
				CHANNELS 3 Zrotation Yrotation Xrotation
				JOINT RightFoot
				{
					OFFSET -0.27018 -17.05419 -1.63900
					CHANNELS 3 Zrotation Yrotation Xrotation
					JOINT RightToes
					{
						OFFSET 0.00298 -1.73825 3.34613
						CHANNELS 3 Zrotation Yrotation Xrotation
						End Site
						{
							OFFSET 0.00480 -0.05416 3.85043
						}
					}
				}
			}
		}
	}
	JOINT SpineDummy
	{
		OFFSET 0 0 0
		CHANNELS 3 Zrotation Yrotation Xrotation
		JOINT Spine
		{
			OFFSET 0.00000 4.14613 0.00000
			CHANNELS 3 Zrotation Yrotation Xrotation
			JOINT Spine1
			{
				OFFSET 0.00000 10.93369 0.05002
				CHANNELS 3 Zrotation Yrotation Xrotation
				JOINT HEadDummy
				{
					OFFSET 0 0 0
					CHANNELS 3 Zrotation Yrotation Xrotation
					JOINT Head
					{
						OFFSET 0.00000 5.52901 0.00438
						CHANNELS 3 Zrotation Yrotation Xrotation
						End Site
						{
							OFFSET -0.11417 7.29012 0.98962
						}
					}
				}
				JOINT LeftShoulder1Dummy
				{
					OFFSET 0 0 0
					CHANNELS 3 Zrotation Yrotation Xrotation
					JOINT LeftShoulder1
					{
						OFFSET 3.53937 -0.14262 -0.08662
						CHANNELS 3 Zrotation Yrotation Xrotation
						JOINT LeftArm
						{
							OFFSET 4.04833 -0.00133 0.12681
							CHANNELS 3 Zrotation Yrotation Xrotation
							JOINT LeftForeArm
							{
								OFFSET 9.67557 0.03289 -0.56117
								CHANNELS 3 Zrotation Yrotation Xrotation
								JOINT LeftHand
								{
									OFFSET 10.17679 0.06873 0.40307
									CHANNELS 3 Zrotation Yrotation Xrotation
									End Site
									{
										OFFSET 6.59293 -0.21483 0.59213
									}
								}
							}
						}
					}
				}
				JOINT RightShoulderDummy
				{
					OFFSET 0 0 0
					CHANNELS 3 Zrotation Yrotation Xrotation
					JOINT RightShoulder
					{
						OFFSET -3.53937 -0.14262 -0.08660
						CHANNELS 3 Zrotation Yrotation Xrotation
						JOINT RightArm
						{
							OFFSET -4.04833 -0.00132 0.12683
							CHANNELS 3 Zrotation Yrotation Xrotation
							JOINT RightForeArm
							{
								OFFSET -9.67570 0.03289 -0.56114
								CHANNELS 3 Zrotation Yrotation Xrotation
								JOINT RightHand
								{
									OFFSET -10.17679 0.06867 0.40304
									CHANNELS 3 Zrotation Yrotation Xrotation
									End Site
									{
										OFFSET -6.54841 -0.21495 0.59212
									}
								}
							}
						}
					}
				}
			}
		}
	}
	JOINT LeftUpLegDummy
	{
		OFFSET 0 0 0
		CHANNELS 3 Zrotation Yrotation Xrotation
		JOINT LeftUpLeg
		{
			OFFSET 3.52197 -3.41223 0.04002
			CHANNELS 3 Zrotation Yrotation Xrotation
			JOINT LeftLeg
			{
				OFFSET 1.08359 -17.35354 1.60336
				CHANNELS 3 Zrotation Yrotation Xrotation
				JOINT LeftFoot
				{
					OFFSET 0.24986 -17.28405 -1.63802
					CHANNELS 3 Zrotation Yrotation Xrotation
					JOINT LeftToes
					{
						OFFSET -0.01575 -1.73822 3.34610
						CHANNELS 3 Zrotation Yrotation Xrotation
						End Site
						{
							OFFSET 0.03150 -0.01868 3.85031
						}
					}
				}
			}
		}
	}
}
MOTION
Frames: 14
Frame Time: 0.033333
11.9316 40.7652 -0.1702 177.5970 -82.7831 -175.6250 0.0000 0.0000 0.0000 -7.0809 -6.6205 -2.6968 -2.7971 -2.1328 3.3301 2.1142 -0.1620 -1.2441 0.0000 0.0000 -0.0000 0.0000 0.0000 0.0000 2.3893 1.9185 -3.6962 -2.5717 2.2799 1.3122 0.0000 0.0000 0.0000 0.3835 -7.4144 9.3654 0.0000 0.0000 0.0000 4.0424 4.8875 -0.0257 4.2102 -11.5151 -31.7158 -8.8802 5.1979 42.3955 3.7094 -1.9707 -0.2102 0.0000 0.0000 0.0000 -2.3858 -0.7454 0.2147 -3.9797 9.8478 -25.8568 5.9499 -5.5840 15.6132 -14.9293 -4.4077 -0.0466 0.0000 0.0000 0.0000 7.8579 9.4728 -0.2860 1.1208 7.0816 0.2804 -2.8949 0.2616 -0.0487 -0.0000 0.0000 -0.0000
11.9251 40.7652 -0.1660 177.5880 -82.7549 -175.6550 0.0000 0.0000 0.0000 -7.1215 -6.6939 -2.6060 -2.7301 -2.0513 3.2284 2.0177 -0.1559 -1.2353 0.0000 0.0000 -0.0000 0.0000 0.0000 0.0000 2.4210 1.9407 -3.6336 -2.5743 2.3019 1.2670 0.0000 0.0000 0.0000 0.3514 -7.4230 9.2538 0.0000 0.0000 0.0000 3.9824 4.8539 -0.0257 4.2297 -11.5614 -31.6831 -8.9076 5.1976 42.3960 3.7966 -2.0573 -0.2098 0.0000 0.0000 0.0000 -2.3148 -0.6963 0.2147 -4.0753 9.8051 -25.9097 5.9263 -5.5838 15.6857 -14.8093 -4.3145 -0.0580 0.0000 0.0000 0.0000 7.8668 9.4969 -0.2003 1.0941 7.0916 0.2293 -2.8949 0.2616 -0.0421 -0.0000 0.0000 -0.0000
11.9128 40.7652 -0.1601 177.4190 -82.6753 -175.5220 0.0000 0.0000 0.0000 -7.1784 -6.7680 -2.5493 -2.6808 -1.9245 3.1773 1.9302 -0.1502 -1.2525 0.0000 0.0000 -0.0000 0.0000 0.0000 0.0000 2.4566 1.9835 -3.5848 -2.6076 2.3516 1.2665 0.0000 0.0000 0.0000 0.3221 -7.4585 8.9915 0.0000 0.0000 0.0000 3.9363 4.8521 -0.0257 4.1972 -11.6562 -31.5916 -8.9655 5.1958 42.4499 3.8338 -2.1896 -0.2095 0.0000 0.0000 0.0000 -2.2000 -0.6891 0.2147 -4.1512 9.8148 -26.0239 5.8731 -5.5838 15.7717 -14.8939 -4.1748 -0.0755 0.0000 0.0000 0.0000 7.8516 9.5141 -0.1062 1.0680 7.1552 0.2017 -2.8902 0.2613 -0.0578 -0.0000 0.0000 -0.0000
11.8992 40.7649 -0.1559 177.1350 -82.5904 -175.2360 0.0000 0.0000 0.0000 -7.2186 -6.7838 -2.5767 -2.6975 -1.8263 3.2139 1.9746 -0.1530 -1.2573 0.0000 0.0000 -0.0000 0.0000 0.0000 0.0000 2.4412 2.0051 -3.6202 -2.6200 2.3794 1.3607 0.0000 0.0000 0.0000 0.3099 -7.4800 8.6850 0.0000 0.0000 0.0000 3.9508 4.9258 -0.0257 4.0710 -11.7349 -31.5475 -8.9787 5.1937 42.5361 3.7725 -2.1648 -0.2060 0.0000 0.0000 0.0000 -2.1218 -0.7380 0.2147 -4.1409 9.9287 -26.0898 5.8545 -5.5839 15.7683 -15.0448 -4.1158 -0.0834 0.0000 0.0000 0.0000 7.8118 9.5109 -0.0622 1.0510 7.2366 0.1962 -2.8690 0.2599 -0.0745 -0.0000 0.0000 -0.0000
11.8868 40.7634 -0.1528 176.9450 -82.5513 -175.0410 0.0000 0.0000 0.0000 -7.2472 -6.7826 -2.5846 -2.7176 -1.7711 3.2277 2.1285 -0.1629 -1.2571 0.0000 0.0000 -0.0000 0.0000 0.0000 0.0000 2.3954 2.0020 -3.6769 -2.5896 2.3739 1.4655 0.0000 0.0000 0.0000 0.2780 -7.4734 8.4589 0.0000 0.0000 0.0000 3.9634 4.9798 -0.0257 3.9556 -11.8105 -31.6214 -8.9281 5.1931 42.5888 3.7080 -1.9955 -0.1979 0.0000 0.0000 0.0000 -2.0589 -0.7555 0.2147 -4.1537 10.0408 -26.0631 5.9025 -5.5842 15.6363 -14.8791 -4.1821 -0.0746 0.0000 0.0000 0.0000 7.7858 9.5135 -0.0464 1.0368 7.2651 0.2117 -2.8452 0.2584 -0.0991 -0.0000 0.0000 -0.0000
11.8776 40.7609 -0.1496 176.8550 -82.5607 -174.9730 0.0000 0.0000 0.0000 -7.2787 -6.8094 -2.5301 -2.7025 -1.7443 3.1965 2.2390 -0.1700 -1.2785 0.0000 0.0000 -0.0000 0.0000 0.0000 0.0000 2.3457 1.9987 -3.6863 -2.5289 2.3613 1.5140 0.0000 0.0000 0.0000 0.2371 -7.4667 8.3372 0.0000 0.0000 0.0000 3.9475 4.9483 -0.0257 3.9503 -11.9462 -31.6781 -8.9124 5.1902 42.7258 3.6808 -1.9390 -0.1940 0.0000 0.0000 0.0000 -2.0092 -0.7189 0.2147 -4.1789 10.0646 -26.0046 5.9542 -5.5842 15.5477 -14.5416 -4.3355 -0.0549 0.0000 0.0000 0.0000 7.7784 9.5235 -0.0393 1.0316 7.2445 0.2682 -2.8434 0.2583 -0.1454 -0.0000 0.0000 -0.0000
11.8726 40.7604 -0.1450 176.7080 -82.6046 -174.8540 0.0000 0.0000 0.0000 -7.3106 -6.8468 -2.4801 -2.6940 -1.7518 3.1891 2.2259 -0.1698 -1.2523 0.0000 0.0000 -0.0000 0.0000 0.0000 0.0000 2.2600 1.9837 -3.6587 -2.4141 2.3309 1.5224 0.0000 0.0000 0.0000 0.2559 -7.4658 8.2528 0.0000 0.0000 0.0000 3.9258 4.9007 -0.0257 4.0366 -12.1196 -31.6274 -8.9686 5.1809 43.1172 3.6616 -2.0877 -0.1909 0.0000 0.0000 0.0000 -2.0695 -0.7012 0.2128 -4.0474 10.0877 -25.9998 5.9267 -5.5836 15.7398 -14.4792 -4.4917 -0.0360 0.0000 0.0000 0.0000 7.7593 9.5164 -0.0407 1.0308 7.2146 0.3171 -2.8461 0.2584 -0.1735 -0.0000 0.0000 -0.0000
11.8723 40.7651 -0.1356 176.5450 -82.7067 -174.6980 0.0000 0.0000 0.0000 -7.3349 -6.8672 -2.4505 -2.7148 -1.8365 3.1834 2.1977 -0.1719 -1.1204 0.0000 0.0000 -0.0000 0.0000 0.0000 0.0000 2.1209 1.9197 -3.6132 -2.2353 2.2432 1.4979 0.0000 0.0000 0.0000 0.3491 -7.4526 8.1616 0.0000 0.0000 0.0000 3.8190 4.8643 -0.0245 4.1847 -12.1979 -31.7425 -8.9225 5.1753 43.3869 3.6083 -2.1595 -0.1892 0.0000 0.0000 0.0000 -2.2198 -0.7423 0.2053 -3.7371 10.2111 -26.1434 5.8082 -5.5993 15.8609 -14.6864 -4.5732 -0.0261 0.0000 0.0000 0.0000 7.7284 9.4951 -0.0586 1.0153 7.1455 0.3056 -2.8090 0.2561 -0.1506 -0.0000 0.0000 -0.0000
11.8784 40.7739 -0.1182 176.4960 -82.8871 -174.6410 0.0000 0.0000 0.0000 -7.3618 -6.8794 -2.3845 -2.7297 -2.0197 3.0807 2.2643 -0.1833 -0.9631 0.0000 0.0000 -0.0000 0.0000 0.0000 0.0000 1.9650 1.8189 -3.5650 -2.0756 2.1203 1.4517 0.0000 0.0000 0.0000 0.4505 -7.4381 8.0476 0.0000 0.0000 0.0000 3.4413 4.7033 -0.0155 4.4263 -12.0416 -32.2160 -8.6667 5.1914 42.7892 3.5855 -1.8806 -0.1884 0.0000 0.0000 0.0000 -2.1848 -0.7762 0.2039 -3.3313 10.2500 -26.5031 5.6192 -5.5264 14.9264 -14.8727 -4.6451 -0.0171 0.0000 0.0000 0.0000 7.6973 9.4733 -0.1344 0.9968 7.0108 0.3072 -2.7104 0.2497 -0.1146 -0.0000 0.0000 -0.0000
11.8945 40.7815 -0.0926 176.3610 -83.0813 -174.4560 0.0000 0.0000 0.0000 -7.4026 -6.8732 -2.3475 -2.7543 -2.2389 2.9133 2.3821 -0.1991 -0.8125 0.0000 0.0000 -0.0000 0.0000 0.0000 0.0000 1.7811 1.7463 -3.6158 -2.0080 2.0447 1.5280 0.0000 0.0000 0.0000 0.5353 -7.4497 7.8281 0.0000 0.0000 0.0000 2.6881 4.3439 0.0090 4.7059 -11.5670 -32.3358 -8.5732 5.3250 41.4671 4.0935 -1.4184 -0.2028 0.0000 0.0000 0.0000 -1.7498 -0.6990 0.2242 -2.5713 9.7608 -26.8861 5.3398 -4.3897 12.7941 -15.2019 -4.8761 0.0129 0.0000 0.0000 0.0000 7.6186 9.4191 -0.3469 1.0170 6.9218 0.4344 -2.5531 0.2384 -0.0974 -0.0000 0.0000 -0.0000
11.9255 40.7870 -0.0555 175.8970 -83.1620 -173.8370 0.0000 0.0000 0.0000 -7.4450 -6.8113 -2.5452 -2.8528 -2.3807 2.8548 2.4795 -0.2188 -0.5219 0.0000 0.0000 -0.0000 0.0000 0.0000 0.0000 1.5144 1.7449 -3.8878 -1.9937 2.0641 1.9335 0.0000 0.0000 0.0000 0.6849 -7.4943 7.3556 0.0000 0.0000 0.0000 1.6137 3.9762 0.0400 4.7717 -10.7685 -30.9296 -9.1953 4.5200 40.9951 5.9113 -1.1797 -0.2881 0.0000 0.0000 0.0000 -1.0173 -0.4707 0.2682 -0.9453 8.4581 -26.7782 4.9801 -0.7982 11.2223 -16.1237 -5.0502 0.0388 0.0000 0.0000 0.0000 7.4428 9.3079 -0.7371 1.0769 7.0271 0.6778 -2.3561 0.2206 -0.0794 -0.0000 0.0000 -0.0000
11.9774 40.7931 0.0044 175.5710 -83.0417 -173.2560 0.0000 0.0000 0.0000 -7.4664 -6.7183 -3.0615 -2.9791 -2.3724 2.9999 2.5329 -0.2419 -0.0428 0.0000 0.0000 -0.0000 0.0000 0.0000 0.0000 1.2386 1.8165 -4.3352 -2.0196 2.1765 2.7262 0.0000 0.0000 0.0000 0.9966 -7.5679 6.5298 0.0000 0.0000 0.0000 0.3357 3.8393 0.0580 4.2340 -9.7672 -27.2329 -10.4048 -0.9637 42.2058 8.9792 -1.2667 -0.4480 0.0000 0.0000 0.0000 -0.0964 -0.1588 0.3301 1.6117 6.5195 -25.8650 4.7106 4.6486 12.1511 -17.6307 -4.5322 -0.0323 0.0000 0.0000 0.0000 7.2320 9.2042 -1.2491 1.1324 7.3191 0.9873 -2.1578 0.2017 -0.0877 -0.0000 0.0000 -0.0000
12.0565 40.7996 0.0986 176.0140 -82.7200 -173.4650 0.0000 0.0000 0.0000 -7.4713 -6.6674 -3.7429 -3.0120 -2.1967 3.2874 2.4836 -0.2556 0.4463 0.0000 0.0000 -0.0000 0.0000 0.0000 0.0000 1.0897 1.9512 -4.7968 -2.1822 2.3790 3.8502 0.0000 0.0000 0.0000 1.5458 -7.6930 5.3417 0.0000 0.0000 0.0000 -1.0259 3.9041 0.0589 2.3316 -8.8203 -14.6500 -8.8940 -10.1663 35.6077 11.5819 -1.6490 -0.6153 0.0000 0.0000 0.0000 1.1925 0.1186 0.4084 4.7700 4.4655 -21.9110 3.9690 11.3575 12.5512 -19.4293 -3.2125 -0.2497 0.0000 0.0000 0.0000 7.0740 9.1669 -1.7690 1.1925 7.7319 1.3912 -1.9819 0.1819 -0.1877 -0.0000 0.0000 -0.0000
12.1671 40.8025 0.2277 176.7390 -82.2698 -174.0790 0.0000 0.0000 0.0000 -7.5148 -6.6442 -4.4235 -2.9906 -1.8451 3.6584 2.3580 -0.2592 0.8867 0.0000 0.0000 -0.0000 0.0000 0.0000 0.0000 0.9313 2.0817 -5.2431 -2.4461 2.6075 5.3263 0.0000 0.0000 0.0000 2.3119 -7.7724 3.8570 0.0000 0.0000 0.0000 -2.3856 3.9241 0.0635 -1.0543 -8.0082 7.8702 -0.9244 -20.6163 16.0267 11.6278 -2.5940 -0.7056 0.0000 0.0000 0.0000 2.9644 0.3256 0.5053 8.4915 2.8408 -11.8372 1.2591 18.7784 5.9794 -21.0020 -1.9067 -0.4991 0.0000 0.0000 0.0000 6.9012 9.1105 -2.2301 1.3371 8.3005 1.9126 -1.8078 0.1608 -0.3479 -0.0000 0.0000 -0.0000
